<svg width="190" height="36" viewBox="0 0 190 36" xmlns="http://www.w3.org/2000/svg">
  <polygon points="18,2 22,13 34,13 24,20 28,31 18,24 8,31 12,20 2,13 14,13" fill="#F5C518" transform="translate(0, 0)"/>
  <polygon points="18,2 22,13 34,13 24,20 28,31 18,24 8,31 12,20 2,13 14,13" fill="#F5C518" transform="translate(38, 0)"/>
  <polygon points="18,2 22,13 34,13 24,20 28,31 18,24 8,31 12,20 2,13 14,13" fill="#CCCCCC" transform="translate(76, 0)"/>
  <polygon points="18,2 22,13 34,13 24,20 28,31 18,24 8,31 12,20 2,13 14,13" fill="#CCCCCC" transform="translate(114, 0)"/>
  <polygon points="18,2 22,13 34,13 24,20 28,31 18,24 8,31 12,20 2,13 14,13" fill="#CCCCCC" transform="translate(152, 0)"/>
</svg>
